<svg width="982" height="708" xmlns="http://www.w3.org/2000/svg" xmlns:xlink="http://www.w3.org/1999/xlink" overflow="hidden"><defs><clipPath id="clip0"><path d="M149 6 1131 6 1131 714 149 714Z" fill-rule="evenodd" clip-rule="evenodd"/></clipPath></defs><g clip-path="url(#clip0)" transform="translate(-149 -6)"><path d="M150.5 515C150.5 405.372 240.267 316.5 351 316.5 461.733 316.5 551.5 405.372 551.5 515 551.5 624.629 461.733 713.5 351 713.5 240.267 713.5 150.5 624.629 150.5 515Z" stroke="#FFFFFF" stroke-width="1.33333" stroke-miterlimit="8" fill="#FFFFFF" fill-rule="evenodd"/><text fill="#FFFFFF" font-family="Roboto,Roboto_MSFontService,sans-serif" font-weight="400" font-size="24" transform="translate(218.449 523)">Phoenix, AZ</text><path d="M497.5 382.5C497.5 210.187 639.202 70.5001 814 70.5001 988.798 70.5001 1130.5 210.187 1130.5 382.5 1130.5 554.813 988.798 694.5 814 694.5 639.202 694.5 497.5 554.813 497.5 382.5Z" stroke="#BE3C1F" stroke-width="1.33333" stroke-miterlimit="8" fill="#BE3C1F" fill-rule="evenodd"/><path d="M246.5 187C246.5 87.8649 326.417 7.50005 425 7.50005 523.583 7.50005 603.5 87.8649 603.5 187 603.5 286.135 523.583 366.5 425 366.5 326.417 366.5 246.5 286.135 246.5 187Z" stroke="#F0DAD6" stroke-width="1.33333" stroke-miterlimit="8" fill="#F0DAD6" fill-rule="evenodd"/><text font-family="Roboto,Roboto_MSFontService,sans-serif" font-weight="400" font-size="43" transform="translate(307.691 203)">Phoenix, AZ<tspan x="-87.2276" y="333">480</tspan>-<tspan x="-3.39426" y="333">721</tspan>-<tspan x="80.4391" y="333">5390</tspan><tspan x="234.757" y="197">m</tspan><tspan x="272.091" y="197">ckennacraig19@gmail.com</tspan></text></g></svg>